<svg width="29" height="17" viewBox="0 0 29 17" fill="none" xmlns="http://www.w3.org/2000/svg">
<path d="M1.61112 17C1.15463 17 0.772265 16.864 0.464006 16.592C0.155746 16.32 0.00107963 15.9838 5.55555e-06 15.5833C-0.00106852 15.1829 0.153598 14.8467 0.464006 14.5747C0.774413 14.3027 1.15678 14.1667 1.61112 14.1667H27.3889C27.8454 14.1667 28.2283 14.3027 28.5376 14.5747C28.8469 14.8467 29.0011 15.1829 29 15.5833C28.9989 15.9838 28.8443 16.3205 28.536 16.5934C28.2277 16.8663 27.8454 17.0019 27.3889 17H1.61112ZM1.61112 9.91666C1.15463 9.91666 0.772265 9.78065 0.464006 9.50866C0.155746 9.23666 0.00107963 8.90043 5.55555e-06 8.49999C-0.00106852 8.09955 0.153598 7.76332 0.464006 7.49132C0.774413 7.21933 1.15678 7.08333 1.61112 7.08333H27.3889C27.8454 7.08333 28.2283 7.21933 28.5376 7.49132C28.8469 7.76332 29.0011 8.09955 29 8.49999C28.9989 8.90043 28.8443 9.23713 28.536 9.51007C28.2277 9.78302 27.8454 9.91854 27.3889 9.91666H1.61112ZM1.61112 2.83333C1.15463 2.83333 0.772265 2.69733 0.464006 2.42533C0.155746 2.15333 0.00107963 1.81711 5.55555e-06 1.41667C-0.00106852 1.01622 0.153598 0.679999 0.464006 0.408C0.774413 0.136 1.15678 0 1.61112 0H27.3889C27.8454 0 28.2283 0.136 28.5376 0.408C28.8469 0.679999 29.0011 1.01622 29 1.41667C28.9989 1.81711 28.8443 2.1538 28.536 2.42675C28.2277 2.69969 27.8454 2.83522 27.3889 2.83333H1.61112Z" fill="white"/>
</svg>
